<svg xmlns="http://www.w3.org/2000/svg" viewBox="0 0 354.662 354.662"><path d="M349.805 45.295a7.502 7.502 0 0 0-8.279 2.074c-1.133 1.289-27.742 32.117-29.613 77.371-1.188 28.682-1.164 46.834 9.152 57.029 4.523 4.473 10.537 6.934 18.598 7.543v113.035c0 4.143 3.357 7.5 7.5 7.5a7.5 7.5 0 0 0 7.5-7.5V52.314a7.5 7.5 0 0 0-4.858-7.019zm-10.143 128.951c-3.695-.424-6.355-1.467-8.055-3.145-5.875-5.809-5.635-23.377-4.709-45.742.791-19.137 6.758-35.553 12.764-47.471v96.358zM180.502 58.058c-65.766 0-119.271 53.506-119.271 119.275 0 65.764 53.506 119.27 119.271 119.27 65.768 0 119.272-53.506 119.272-119.27 0-65.769-53.504-119.275-119.272-119.275zm0 223.545c-57.494 0-104.271-46.777-104.271-104.27 0-57.498 46.777-104.275 104.271-104.275 57.496 0 104.272 46.777 104.272 104.275 0 57.493-46.776 104.27-104.272 104.27z"/><path d="M180.502 92.883c-46.563 0-84.445 37.883-84.445 84.447s37.883 84.447 84.445 84.447 84.445-37.883 84.445-84.447-37.882-84.447-84.445-84.447zm0 153.894c-38.293 0-69.445-31.154-69.445-69.447s31.152-69.447 69.445-69.447 69.445 31.154 69.445 69.447-31.152 69.447-69.445 69.447zM52.111 46.679a7.499 7.499 0 0 0-7.5 7.5v35.482h-7.307V54.179c0-4.143-3.357-7.5-7.5-7.5a7.5 7.5 0 0 0-7.5 7.5v35.482H15V54.179c0-4.143-3.357-7.5-7.5-7.5a7.5 7.5 0 0 0-7.5 7.5v42.982c0 26.16 9.182 46.871 22.305 52.615v150.705a7.5 7.5 0 0 0 7.5 7.5c4.143 0 7.5-3.357 7.5-7.5V149.777c13.125-5.744 22.307-26.455 22.307-52.615V54.179a7.501 7.501 0 0 0-7.501-7.5zm-22.306 89.696c-5.244 0-12.877-12.381-14.496-31.713h28.992c-1.619 19.332-9.252 31.713-14.496 31.713z"/></svg>